<svg version="1.1" id="Layer_1" xmlns="http://www.w3.org/2000/svg" xmlns:xlink="http://www.w3.org/1999/xlink" x="0px" y="0px"
	 width="100%" viewBox="0 0 592 592" enable-background="0 0 592 592" xml:space="preserve">
<rect width="100%" height="100%" fill="#fff"/>

<path fill="#000000" opacity="1.000000" stroke="none" 
	d="
M593.000000,236.000000 
	C593.000000,355.333344 593.000000,474.166656 593.000000,593.000000 
	C395.666656,593.000000 198.333328,593.000000 1.000000,593.000000 
	C1.000000,395.666656 1.000000,198.333328 1.000000,1.000000 
	C198.333328,1.000000 395.666656,1.000000 593.000000,1.000000 
	C593.000000,79.166664 593.000000,157.333328 593.000000,236.000000 
M431.670380,68.955078 
	C397.522217,49.916248 361.020355,38.060520 321.997314,35.686260 
	C297.641663,34.204403 273.143341,34.660381 248.996399,39.732479 
	C200.588501,49.900616 157.749710,71.216537 120.997498,104.263908 
	C99.970367,123.171379 82.702026,145.303757 68.983597,170.090027 
	C50.067810,204.266785 37.978058,240.720825 35.659489,279.768250 
	C34.194038,304.448242 34.743118,329.242706 39.839516,353.731140 
	C47.499504,390.537872 62.313892,424.198303 83.606888,455.026672 
	C99.302773,477.751465 118.522202,497.137390 140.569290,513.801208 
	C159.132980,527.832275 179.479523,538.656433 200.776550,547.713440 
	C220.246643,555.993530 240.645859,561.280151 261.536224,564.537354 
	C279.361725,567.316650 297.354431,566.665588 315.303589,566.600220 
	C326.611145,566.559021 337.789703,564.955750 348.877838,562.946167 
	C375.887939,558.050842 401.350403,548.774536 425.722565,536.119385 
	C458.546265,519.075867 486.226624,495.893036 509.286407,467.183502 
	C524.231018,448.577301 535.951538,427.978241 545.571899,406.102081 
	C557.463135,379.062012 564.609985,350.792847 566.335022,321.466339 
	C567.433960,302.783722 567.390198,283.949371 564.818542,265.191742 
	C561.110413,238.144470 553.544556,212.412140 541.895508,187.728821 
	C529.730530,161.952209 514.232483,138.526245 494.620728,117.852295 
	C476.301605,98.540924 455.597961,82.259781 431.670380,68.955078 
z"/>
<path fill="#000000" opacity="1.000000" stroke="none" 
	d="
M445.021057,124.891670 
	C463.922424,141.170288 480.263855,159.155853 493.619995,179.929688 
	C508.847595,203.614426 518.512146,229.366104 524.385193,256.746338 
	C527.496216,271.250031 529.117493,286.013153 529.088074,300.691772 
	C529.047913,320.757050 526.285217,340.690613 520.967896,360.176605 
	C513.168945,388.756531 500.328278,414.813690 482.350250,438.349548 
	C475.374817,447.481445 467.650818,455.932007 459.398499,463.925781 
	C457.350677,465.909393 455.605103,465.840088 453.224731,464.643738 
	C428.838715,452.387451 404.468109,440.097473 379.959625,428.089600 
	C372.338318,424.355530 368.893616,418.508270 368.656006,410.346466 
	C368.631775,409.513733 368.717621,408.670471 368.618195,407.848328 
	C367.430206,398.024384 369.948730,389.615204 376.047394,381.497040 
	C384.760529,369.898651 390.666718,356.564087 396.158325,343.145813 
	C397.140259,340.746521 398.508209,339.078125 400.627747,337.481689 
	C411.874084,329.010834 418.369202,317.817322 418.591095,303.508789 
	C418.766815,292.178772 418.420898,280.838928 418.694031,269.512787 
	C418.881500,261.738098 416.714020,254.723999 413.058502,248.087326 
	C411.224335,244.757385 410.533325,241.382736 410.570557,237.604309 
	C410.706848,223.773026 410.934784,209.931152 410.559021,196.108734 
	C409.798615,168.137115 398.858917,145.113876 375.499481,129.085724 
	C362.191711,119.954559 347.045593,114.790764 331.046692,112.433006 
	C307.164673,108.913513 283.236023,108.859932 259.784393,114.688660 
	C224.703720,123.407677 200.727097,144.108154 192.867264,180.700165 
	C191.614029,186.534653 191.248566,192.505508 191.323242,198.524109 
	C191.490723,212.021317 191.349442,225.522156 191.395218,239.021286 
	C191.404419,241.734726 191.032471,244.209274 189.636108,246.658691 
	C185.005676,254.781174 182.822098,263.445038 183.273956,272.940948 
	C183.732864,282.585297 183.291061,292.269409 183.397659,301.934387 
	C183.523453,313.340546 187.180161,323.428864 195.091339,331.814056 
	C196.248276,333.040314 197.065613,334.352478 197.568741,336.035217 
	C203.183624,354.814117 211.729050,372.208527 222.612946,388.478638 
	C223.549911,389.879242 224.341492,391.323792 224.338730,393.078522 
	C224.327148,400.411072 224.473602,407.748077 224.259033,415.074524 
	C224.131821,419.418213 221.515915,422.495087 217.850647,424.575623 
	C207.308487,430.559509 196.766876,436.547089 186.140869,442.379852 
	C173.458786,449.341187 160.623795,456.026245 147.999481,463.089142 
	C144.417542,465.093140 142.186676,464.559723 139.428268,461.677155 
	C107.760757,428.584473 86.350960,390.126312 77.484726,344.918823 
	C74.504677,329.724060 72.451019,314.389282 72.784393,298.985016 
	C73.481461,266.775482 80.324654,235.786667 93.735718,206.371567 
	C103.676750,184.567459 117.166527,165.210571 133.199661,147.407272 
	C152.042374,126.484207 174.077972,109.747818 199.010178,97.127785 
	C221.037582,85.978081 244.518448,78.737984 269.163635,75.463646 
	C280.703430,73.930473 292.290741,72.310127 303.851685,72.777802 
	C354.687042,74.834244 401.033813,89.836548 441.160614,121.984665 
	C442.324219,122.916931 443.555542,123.764717 445.021057,124.891670 
z"/>
<path fill="#000000" opacity="1.000000" stroke="none" 
	d="
M333.741638,375.808044 
	C332.019684,379.879517 331.176239,383.724152 331.360413,387.805023 
	C331.877502,399.260986 330.547150,410.742340 332.265045,422.199127 
	C334.721558,438.581390 342.508514,451.128082 357.522858,458.690491 
	C377.585114,468.795563 397.699768,478.796478 417.772522,488.880829 
	C419.502136,489.749786 421.557587,490.231842 422.889435,492.636658 
	C415.726868,497.685364 408.143433,502.051819 400.282501,505.763855 
	C383.261932,513.801208 365.523407,519.820923 347.074524,523.797729 
	C326.764313,528.175842 306.157196,529.774719 285.599548,528.143005 
	C248.168564,525.172119 212.975021,514.453796 181.064514,494.102020 
	C179.839874,493.320984 178.079529,492.895660 178.030365,491.102661 
	C177.972824,489.003571 179.949265,488.574188 181.343262,487.811401 
	C200.297668,477.439148 219.407425,467.341888 238.196533,456.679321 
	C253.618698,447.927399 261.080688,434.037598 261.575043,416.472046 
	C261.856201,406.482727 261.367371,396.469788 261.722809,386.485229 
	C261.936401,380.485779 260.384888,375.292786 256.828766,370.667542 
	C245.320175,355.699066 237.644440,338.902100 232.496872,320.820679 
	C230.901367,315.216278 228.823441,309.827759 223.428589,306.383453 
	C221.102844,304.898560 220.601593,302.046112 220.617844,299.236694 
	C220.670868,290.072876 220.682022,280.908325 220.620422,271.744629 
	C220.600189,268.737000 221.656067,266.315125 223.598236,264.056580 
	C227.072372,260.016602 228.790298,255.427399 228.708710,249.897400 
	C228.477692,234.238464 228.625366,218.573898 228.628281,202.911560 
	C228.633514,174.728928 241.794907,157.694214 269.969299,151.081482 
	C294.527649,145.317444 319.158234,145.637283 342.981842,154.776138 
	C359.805389,161.229752 370.151154,173.608215 372.377502,191.826706 
	C374.728088,211.061569 372.972504,230.407257 373.271790,249.699966 
	C373.356140,255.138748 374.443451,259.813599 377.992340,263.974945 
	C380.433899,266.837830 381.545166,270.184387 381.436737,274.103333 
	C381.220276,281.928558 381.366821,289.763885 381.367615,297.595062 
	C381.368042,301.670685 380.350281,305.545258 376.365784,307.176666 
	C368.439056,310.422211 364.965698,316.925293 362.510956,324.416443 
	C357.012085,341.197418 348.544769,356.333984 337.335205,369.970673 
	C335.976074,371.624115 335.040955,373.626129 333.741638,375.808044 
z"/>
</svg>